<?xml version="1.0" encoding="UTF-8" standalone="no"?>
<!-- Created with Inkscape (http://www.inkscape.org/) -->

<svg
   width="300mm"
   height="200mm"
   viewBox="0 0 300 200"
   version="1.1"
   id="svg1"
   xmlns="http://www.w3.org/2000/svg"
   xmlns:svg="http://www.w3.org/2000/svg">
  <defs
     id="defs1" />
  <g
     id="layer1">
    <g
       id="g12"
       transform="translate(0,-49.999999)">
      <path
         id="path1"
         style="fill:#3a9ff1;fill-opacity:1;stroke:none;stroke-width:1.05813"
         d="M 171.31265,68.257468 A 60,60 0 0 0 114.20606,109.85028 40,40 0 0 0 86.645986,98.840611 40,40 0 0 0 46.645844,138.84076 a 40,40 0 0 0 1.191659,9.69191 40,42.646553 0 0 0 -27.649992,40.5629 40,42.646553 0 0 0 35.201985,42.33902 v 0.0408 h 0.329696 a 40,42.646553 0 0 0 4.468461,0.26717 40,42.646553 0 0 0 4.467944,-0.26717 H 235.5201 v -0.015 a 45,45 0 0 0 44.29239,-44.99466 45,45 0 0 0 -44.99984,-44.99984 45,45 0 0 0 -5.03638,0.28267 60,60 0 0 0 1.53634,-13.49117 60,60 0 0 0 -59.99996,-59.999952 z" />
      <path
         id="path4"
         style="fill:#64b7ff;fill-opacity:1;stroke:none;stroke-width:1.05833"
         d="m 192.33348,87.666484 a 20,20 0 0 0 -20.00033,20.000326 20,20 0 0 0 3.30006,11.00398 c -2.56711,4.53129 -6.01029,8.18377 -9.28264,10.96626 a 35,35 0 0 0 -16.35042,-4.0535 35,35 0 0 0 -34.99993,34.99993 35,35 0 0 0 0.78651,7.37836 c -3.61862,1.47283 -7.22868,2.36672 -10.49083,2.89905 a 25,25 0 0 0 -18.612302,-8.30905 25,25 0 0 0 -25.000025,25.00002 25,25 0 0 0 25.000025,25.00002 25,25 0 0 0 25.000022,-25.00002 25,25 0 0 0 -0.0109,-0.73639 c 5.12264,-1.265 9.81937,-1.57972 13.54233,-1.5198 a 35,35 0 0 0 24.78505,10.28774 35,35 0 0 0 34.99993,-34.99993 35,35 0 0 0 -7.21868,-21.28862 c 2.41615,-5.25323 5.81431,-9.39779 8.93485,-12.43335 a 20,20 0 0 0 5.61723,0.80512 20,20 0 0 0 19.99981,-19.99982 20,20 0 0 0 -19.99981,-20.000326 z" />
      <circle
         style="fill:#64b7ff;fill-opacity:1;stroke:none;stroke-width:1.05833"
         id="circle6"
         cx="81.208321"
         cy="134.12498"
         r="15" />
      <circle
         style="fill:#64b7ff;fill-opacity:1;stroke:none;stroke-width:1.05833"
         id="circle7"
         cx="101.84581"
         cy="153.70404"
         r="7" />
      <circle
         style="fill:#64b7ff;fill-opacity:1;stroke:none;stroke-width:1.05833"
         id="circle8"
         cx="122.48328"
         cy="201.32909"
         r="7" />
      <circle
         style="fill:#64b7ff;fill-opacity:1;stroke:none;stroke-width:1.05833"
         id="circle9"
         cx="224.0834"
         cy="187.0417"
         r="25" />
      <circle
         style="fill:#64b7ff;fill-opacity:1;stroke:none;stroke-width:1.05833"
         id="circle10"
         cx="181.75003"
         cy="208.20839"
         r="10" />
      <circle
         style="fill:#64b7ff;fill-opacity:1;stroke:none;stroke-width:1.05833"
         id="circle11"
         cx="208.20839"
         cy="144.70833"
         r="12" />
      <circle
         style="fill:#64b7ff;fill-opacity:1;stroke:none;stroke-width:1.05833"
         id="circle12"
         cx="147.88336"
         cy="104.49163"
         r="15" />
    </g>
  </g>
</svg>
